<svg width="191" height="67" viewBox="0 0 191 67" fill="none" xmlns="http://www.w3.org/2000/svg">
<g filter="url(#filter0_d_1117:10942)">
<path d="M3 12C3 6.47715 7.47715 2 13 2H178C183.523 2 188 6.47715 188 12V42C188 47.5228 183.523 52 178 52H43.0922C39.8929 52 36.8867 53.5308 35.0049 56.1183L30.8087 61.888C30.4094 62.4371 29.5906 62.4371 29.1913 61.888L24.9951 56.1183C23.1133 53.5308 20.1071 52 16.9078 52H13C7.47715 52 3 47.5228 3 42V12Z" fill="white"/>
<path d="M13 2.5H178C183.247 2.5 187.5 6.7533 187.5 12V42C187.5 47.2467 183.247 51.5 178 51.5H43.0922C39.7329 51.5 36.5764 53.1074 34.6005 55.8242L30.4044 61.5939C30.2047 61.8685 29.7953 61.8685 29.5956 61.5939L25.3995 55.8242C23.4236 53.1074 20.2671 51.5 16.9078 51.5H13C7.75329 51.5 3.5 47.2467 3.5 42V12C3.5 6.75329 7.75329 2.5 13 2.5Z" stroke="#D9D9D9"/>
</g>
<defs>
<filter id="filter0_d_1117:10942" x="0" y="0" width="191" height="66.2998" filterUnits="userSpaceOnUse" color-interpolation-filters="sRGB">
<feFlood flood-opacity="0" result="BackgroundImageFix"/>
<feColorMatrix in="SourceAlpha" type="matrix" values="0 0 0 0 0 0 0 0 0 0 0 0 0 0 0 0 0 0 127 0" result="hardAlpha"/>
<feOffset dy="1"/>
<feGaussianBlur stdDeviation="1.5"/>
<feComposite in2="hardAlpha" operator="out"/>
<feColorMatrix type="matrix" values="0 0 0 0 0 0 0 0 0 0 0 0 0 0 0 0 0 0 0.25 0"/>
<feBlend mode="normal" in2="BackgroundImageFix" result="effect1_dropShadow_1117:10942"/>
<feBlend mode="normal" in="SourceGraphic" in2="effect1_dropShadow_1117:10942" result="shape"/>
</filter>
</defs>
</svg>
